<?xml version="1.0" encoding="utf-8"?>
<!-- Generator: Adobe Illustrator 27.1.0, SVG Export Plug-In . SVG Version: 6.00 Build 0)  -->
<svg version="1.1" id="Layer_1" xmlns="http://www.w3.org/2000/svg" xmlns:xlink="http://www.w3.org/1999/xlink" x="0px" y="0px"
	 viewBox="0 0 1590.68 595.98" enable-background="new 0 0 1590.68 595.98" xml:space="preserve">
<g>
	<linearGradient id="SVGID_1_" gradientUnits="userSpaceOnUse" x1="368.7212" y1="255.5446" x2="1482.9874" y2="255.5446">
		<stop  offset="0" style="stop-color:#8895E0"/>
		<stop  offset="0.5" style="stop-color:#DDE0F2"/>
		<stop  offset="0.8187" style="stop-color:#E5E7F5"/>
		<stop  offset="0.9822" style="stop-color:#E5E7F5;stop-opacity:0"/>
	</linearGradient>
	<path fill="url(#SVGID_1_)" d="M762.67,540.46c-33.14,0-63.23-11.97-84.72-33.71c-20.17-20.39-31.36-47.71-31.51-76.93l0-0.9
		c-0.08-15.89-0.84-31.74-2.1-49.44c-1.34-18.8-2.95-23.55-7.33-26.28c-4.3-1.68-10.83-1.68-13.91,4.91
		c-3.02,6.47-2.94,19.53-4.39,30.95c-1.91,15.02-6.49,29.74-14.17,42.48c-7.95,13.19-20.56,29.36-47.67,37.35
		c-17.84,5.25-41.03,3.68-77.73,4.46c-41.13,0.88-83.22,0.57-83.71,0.6l-25.83,0.48l-0.86-78.63c0,0,69.88,0.19,115.26,0.19
		c62.06,0,57.03-35.89,70.88-72.33c10.65-28.02,36.04-43.4,68.53-46.6c26.25-2.58,48.37,3.75,66.18,18.27
		c36.46,29.73,32.09,59.1,35.06,107.05c2.05,33.15,11.83,60.57,38.03,60.57c0.01,0,0.01,0,0.02,0c13.84,0,19.62-4.07,22.77-7.12
		c10.18-9.88,12.02-33,14.09-62.82c2.51-36.2-3.02-212.83,3.69-246.99c3.94-20.04,15.79-38.51,33.38-52.01
		c17.23-13.23,38.46-20.52,59.78-20.52c0.01,0,0.03,0,0.04,0c31.11,0,55.06,10.06,72.87,28.3c22.79,23.34,24.29,45.75,26.16,86.47
		c1.25,27.22-1.49,83.67-0.37,107.58c0.36,7.64-1.94,24.75,12.33,32.5c17.18,9.34,75,7.84,84.79,7.84
		c17.24,0,390.79-0.69,390.79-0.69l-0.25,70.83c0,0-460.01,3.22-474.85,2.15c-16.64-1.21-47-1.6-61.37-8.78
		c-10.46-5.23-22.88-14.85-26.15-38.66c-4.14-30.16-0.71-145.54-0.19-166.79c0.37-14.89,1.57-31.89-2.33-40.25
		c-4.42-9.45-31.38-11.3-36.51,8.03c-1.28,4.83-1.79,15.24-1.81,22.11c-0.07,20.96-1.79,155.79,0.49,205.47
		c1.07,23.21-0.76,44.34-5.43,62.8c-6.01,23.77-16.75,43.29-31.91,58.01c-20.54,19.94-47.44,30.05-79.97,30.06l0,0
		C762.7,540.46,762.68,540.46,762.67,540.46z M635.8-29.37L635.8-29.37L635.8-29.37z"/>
	<path fill="#293FE6" d="M695.78,300.97c-11.58-9.99-50.2-17.13-69.76,33.71c-5.6,14.57-4.83,30.65-4.83,30.65S623.09,348,637,353.2
		c3.03,1.13,5.53,7.9,6.21,12.91c0.46,3.36,1.51,16.71,2.23,26.84c1.82,25.34,0.33,29.74,1.87,51.55
		c1.46,20.65,18.42,57.29,46.32,75.08c13.92,8.88,44.45,29.32,103.28,16.44c0,0-40.16,2.24-59.39-46.51
		c-11.45-29.01-11.39-49.59-12.51-73.96c0,0-0.65-16.53-1.31-29.7c-0.69-13.81-1.34-43.39-8.17-58.27
		C710.3,316.19,704.82,308.77,695.78,300.97z"/>
	<path fill="#293FE6" d="M953.62,402.66c11.67,4.09,25.7,4.65,44.31,5.46c11.3,0.49,42.23,0.84,48.61,0.7
		c0,0-23.81,1.68-40.06-26.89c-13.42-23.61-11.02-61.2-11.21-69.48c-0.56-24.65,0.15-63.88,0.28-77.6
		c0.37-38.47-0.69-46.13-2.33-78.35c-1.31-25.59-12.51-42.4-23.91-54.72c-7.75-8.38-28.03-24.43-53.08-28
		c-24.67-3.52-47.28,3.74-47.28,3.74c25.21-0.39,38.92,32.1,43.41,42.75c2.97,7.06,6.66,24.35,7.98,52.75
		c0.32,6.86-0.61,46.25-0.82,58.53c0,0-0.61,46.04-0.82,66.71c-0.18,18.67-0.36,54.54,2.44,67.24
		C924.28,379.84,932.33,395.19,953.62,402.66z"/>
	<g>
		<defs>
			<rect id="SVGID_00000145738528953089416620000018443673327852499857_" x="1054.94" y="77.03" width="135.45" height="179.97"/>
		</defs>
		<clipPath id="SVGID_00000067233133427850119810000000002039059967409583_">
			<use xlink:href="#SVGID_00000145738528953089416620000018443673327852499857_"  overflow="visible"/>
		</clipPath>
		<g clip-path="url(#SVGID_00000067233133427850119810000000002039059967409583_)">
			<path fill="#263238" d="M1107.65,104.03c-4.96,11.83-20.53,35.86-1.49,39.28c19.04,3.42,26.66-2.2,28.2-9.81
				C1135.89,125.89,1128.39,90.54,1107.65,104.03z"/>
			<path fill="#263238" d="M1088.57,194.75c0.85-1.22,1.85-2.67,3.06-4.92c3.48-7.45,4.41-6.54,5.88-14.4
				c3.88-20.85,9.21-27.94,9.21-27.94l16.26,2.81l8.97,13.42c0,0-15.66,20.27-23.76,36.28c-1.56,3.08-3,5.2-4.77,7
				c-2.91,2.98-7.41,3.75-11.16,1.93C1086.95,206.33,1085.19,199.61,1088.57,194.75L1088.57,194.75z"/>
			<path fill="#FF8B7B" d="M1088.35,197.27c2.73-2.17,8.62-0.76,11.95,3.46c3.33,4.22,0.73,6.91,0.73,6.91
				c-15.17,14.95-23.39,19.72-28.23,26.98l-7.33-4.95C1073.44,218.41,1075.7,207.35,1088.35,197.27z"/>
			<path fill="#E0E0E0" d="M1064.36,237.46c2.36,1.71,5.62,1.29,7.46-0.96c5.92-7.27,14.71-13.56,15.67-14.53
				c1.99-2.02-11.5-11.22-12.16-9.87c-0.83,1.69-7.2,10.53-12.31,17.75c-1.72,2.42-1.17,5.77,1.22,7.52
				C1064.27,237.39,1064.31,237.42,1064.36,237.46L1064.36,237.46z"/>
			<path fill="#FF8B7B" d="M1132.52,110.63c2.51-0.19,4.96-0.46,7.43-0.75c2.47-0.3,4.93-0.63,7.4-1.01
				c2.47-0.37,4.94-0.8,7.43-1.29c1.25-0.25,2.5-0.5,3.77-0.82c0.63-0.15,1.3-0.34,1.95-0.51c0.65-0.17,1.38-0.42,2.06-0.63
				l0.12-0.04c0.17-0.05,0.34-0.12,0.49-0.2c1.94-1.04,3.69-2.15,5.44-3.29c1.74-1.13,3.41-2.32,5.08-3.51
				c1.65-1.21,3.28-2.44,4.88-3.71c1.6-1.28,3.17-2.56,4.7-3.94c1.05-0.94,1.13-2.55,0.19-3.6c-0.77-0.85-1.98-1.07-2.96-0.61
				l-0.03,0.01c-1.82,0.84-3.63,1.75-5.42,2.63l-5.36,2.69c-1.77,0.9-3.56,1.78-5.31,2.64c-1.75,0.86-3.52,1.69-5.21,2.41l0.61-0.24
				c-0.51,0.11-0.95,0.23-1.5,0.33c-0.55,0.1-1.08,0.21-1.65,0.3l-1.72,0.27l-1.75,0.25c-2.36,0.31-4.75,0.6-7.15,0.88l-7.23,0.8
				l-7.23,0.82c-2.8,0.32-4.8,2.84-4.49,5.63c0.31,2.73,2.73,4.71,5.45,4.5h0.02V110.63z"/>
			<path fill="#407BFF" d="M1127.39,99.86c4.02-4.34,12.36-3.38,19.02-2.18c2.97,3.63-0.2,14.41-0.2,14.41
				c-2.14,0.17-7.65,2.41-13.1,0.29C1125.13,109.28,1125.21,102.22,1127.39,99.86L1127.39,99.86z"/>
			<path fill="#FF8B7B" d="M1178.86,88.11l3.45-5.26l4.91,5.73c0,0-3.7,4.39-6.35,2.8L1178.86,88.11L1178.86,88.11z"/>
			<path fill="#FF8B7B" d="M1188.69,81.45l1.38,2.3c0.55,0.92,0.35,2.09-0.46,2.79l-2.4,2.04l-4.91-5.73l3.36-2.11
				C1186.7,80.09,1188.07,80.41,1188.69,81.45L1188.69,81.45z"/>
			<path fill="#263238" d="M1114.73,150.37c0,0,30.62-5.89,47.12-12.97c3.16-1.36,5.63-2.06,8.13-2.31
				c4.15-0.42,8.11,1.86,9.81,5.67c2.41,5.4-0.56,11.68-6.27,13.24c-1.43,0.39-3.13,0.87-5.51,1.81
				c-7.45,3.48-14.45,6.27-21.07,10.76c-0.61,0.41-1.2,0.87-1.83,1.26c-10.57,6.42-22.19,11.63-31.58,5.31L1114.73,150.37
				L1114.73,150.37z"/>
			<path fill="#407BFF" d="M1101.59,108.18c-0.28,13.74,2.39,32.62,3.56,41.1c0.32,2.35,2.18,4.22,4.53,4.51
				c16.1,1.92,26.57-5.52,29.71-9.1c-0.21-13.1-0.29-28.33,0.39-38.61c0.25-3.83-2.45-7.21-6.25-7.8
				c-5.95-0.92-13.6-1.32-20.69-1.22C1106.7,97.15,1101.71,102.04,1101.59,108.18L1101.59,108.18z"/>
			<path fill="#263238" d="M1139.81,118.88c0,0,0.56,5.4,0,7.02c-5.86-2.85-10.2-20.95-9.27-29.69c1.97-0.19,2.83,0.08,2.83,0.08
				S1134.54,109.22,1139.81,118.88z"/>
			<path fill="#FF8B7B" d="M1120.21,93.8c-0.48,2.72-1.92,4.7-2.66,5.36c0.14,2.87,3.09,8.91,8.29,9.43
				c7.74,0.77,3.19-6.01,3.19-6.01L1120.21,93.8L1120.21,93.8z"/>
			<path opacity="0.2" enable-background="new    " d="M1121.01,94.59l8.02,7.98c0,0,1.36,2.02,1.33,3.74
				c-3.14,0.56-6.51-0.64-8.36-3.88C1120.56,99.91,1120.52,97.58,1121.01,94.59L1121.01,94.59z"/>
			<path fill="#FF8B7B" d="M1121.11,86.8c-1.25,5.96-2.29,9.39-0.11,13.21c3.27,5.75,11.35,5.07,14.38-0.4
				c2.73-4.92,4.31-13.85-0.87-17.76C1129.4,78,1122.35,80.84,1121.11,86.8L1121.11,86.8z"/>
			<path fill="#263238" d="M1125.06,84.66c1.7,1.98,0.27,4.43-1.32,4.62c1.98,1.81,0.61,3.44-3.27,2.79
				c-2.4-3.1-2.92-5.42-0.94-8.02C1122.1,81.23,1124.7,83.62,1125.06,84.66L1125.06,84.66z"/>
			<path fill="#FF8B7B" d="M1116.84,92.61c0.29,1.63,1.28,2.95,2.36,3.69c1.63,1.11,3.05-0.28,3.09-2.22
				c0.04-1.75-0.76-4.43-2.63-4.76C1117.8,89,1116.51,90.76,1116.84,92.61z"/>
			<path fill="#FF5652" d="M1134.05,92.11c0,0,0.23,2.95,1.17,4.56c-2.08,0.43-2.54-0.12-2.54-0.12L1134.05,92.11z"/>
			<path fill="#FF8B7B" d="M1106.78,100.45c-3.59,2.04-7.24,4.18-10.84,6.2c-1.8,1-3.61,2-5.39,2.9c-0.89,0.45-1.77,0.87-2.6,1.25
				c-0.42,0.19-0.82,0.36-1.18,0.5c-0.17,0.06-0.36,0.14-0.49,0.17l-0.32,0.11c-0.12,0.05-0.06,0.01,0.3,0.14
				c0.36,0.1,0.94,0.56,1.1,0.89c0.18,0.35,0.11,0.39,0.07,0.27c-0.06-0.12-0.11-0.4-0.13-0.73c-0.04-0.67-0.01-1.55,0.1-2.45
				c0.11-0.91,0.29-1.86,0.47-2.82c0.8-3.86,2.04-7.91,3.26-11.85l0.02-0.07c0.42-1.34-0.33-2.76-1.68-3.18
				c-1.11-0.35-2.28,0.11-2.88,1.04c-1.23,1.89-2.28,3.78-3.3,5.76c-1,1.98-1.93,4-2.73,6.15c-0.41,1.08-0.76,2.19-1.08,3.37
				c-0.3,1.19-0.58,2.42-0.67,3.88c-0.04,0.73-0.04,1.52,0.09,2.45c0.16,0.92,0.4,2.01,1.2,3.23c0.38,0.59,0.95,1.19,1.58,1.67
				c0.64,0.47,1.38,0.84,2.06,1.03c1.39,0.42,2.54,0.38,3.47,0.28c0.45-0.06,0.9-0.13,1.25-0.21c0.39-0.07,0.71-0.17,1.05-0.25
				c0.66-0.18,1.25-0.37,1.83-0.56c1.15-0.39,2.22-0.82,3.27-1.26c2.1-0.88,4.08-1.82,6.04-2.8c3.92-1.98,7.67-4.05,11.39-6.38
				c2.38-1.49,3.1-4.64,1.61-7.02c-1.46-2.32-4.46-3.06-6.82-1.73L1106.78,100.45L1106.78,100.45z"/>
			<path fill="#407BFF" d="M1118.18,106.9c-2.76,5.23-10.02,9.03-18.57,12.61c-1.11-5.38-5.86-12.18-5.86-12.18s8.47-7.34,15.68-9.7
				C1116.94,95.18,1119.68,104.06,1118.18,106.9z"/>
			<path fill="#FF8B7B" d="M1086.38,93.19l2.05-3.68l5.31,5.37c0,0-1.13,1.55-2.61,2.59c-1.48,1.03-3.51,0.69-4.56-0.77
				C1085.83,95.67,1085.76,94.3,1086.38,93.19L1086.38,93.19z"/>
			<path fill="#FF8B7B" d="M1094.71,87.67l1.54,2.19c0.61,0.87,0.5,2.06-0.26,2.81l-2.25,2.2l-5.31-5.37l3.2-2.35
				C1092.62,86.44,1094.01,86.67,1094.71,87.67z"/>
			<path fill="#FF8B7B" d="M1150.97,187.55c4.48-13.03,4.14-25.67,13.47-43.23c1.64-3.08,4.98-4.85,8.45-4.49
				c6.1,0.64,9.58,7.29,6.59,12.64c-10.35,18.6-17.49,29.44-20.09,37.77L1150.97,187.55z"/>
			<path fill="#E0E0E0" d="M1152.67,195.98c2.78,0.84,5.73-0.62,6.73-3.35c3.2-8.81,10.53-21.37,11.11-22.6
				c1.22-2.56-14.19-5.85-14.38-4.35c-0.23,1.87-4.78,15.07-7.23,23.55c-0.82,2.85,0.79,5.83,3.63,6.7
				C1152.58,195.94,1152.63,195.96,1152.67,195.98L1152.67,195.98z"/>
			<path fill="#263238" d="M1151.18,188.42c-1.86-0.73-3.94,0.35-4.48,2.27l-1.81,6.43c-0.35,0.67,0,1.54,0.72,1.82
				c3.87,1.52,3.42,1.1,7.19,2.51c4.41,1.66,5.1,2.04,10.27,3.98c3.13,1.18,3.99-1.34,3.77-2.78c-0.59-3.91-3.91-6.69-5.06-9.2
				c0,0,3.29-2.35,1.38-4.06c-1.91-1.7-7.3-3.08-8.88-1.76c-0.71,0.59-1.05,1.89-1.05,1.89S1152.36,188.87,1151.18,188.42
				L1151.18,188.42z"/>
			<path fill="#E0E0E0" d="M1165.89,205.26c0.87,0.19-1.35,2.09-1.35,2.09s-8.29-1.49-13.19-3.8c-6.59-3.11-6.95-4.61-6.95-4.61
				c-0.06-0.69,0.12-1.56,0.65-2.39C1144.59,197.06,1154.99,202.94,1165.89,205.26L1165.89,205.26z"/>
			<path fill="#263238" d="M1064.34,230.48c-0.35-2.93-2.54-0.82-3.86,0.68c0,0-2.19,1.62-3.22,2.48c-1.02,0.86-0.79,2.41-0.46,3.89
				c0.52,2.4,0.33,4.15,1.13,8.09c0.94,4.61,1.51,7.59,6.37,10.19c2.94,1.58,5.34-0.87,5.78-2.26c1.17-3.78,2.73-10.58,2.77-13.33
				c0,0,4.45,0.76,3.9-1.73c-0.55-2.49-4.08-6.78-6.15-6.65c-0.92,0.06-3.76,1.13-3.76,1.13S1064.71,233.62,1064.34,230.48z"/>
			<path fill="#E0E0E0" d="M1068.35,255.41c0.76,0.46-2.2,1.58-2.2,1.58s-4.13-1.25-7.86-5.52c-0.96-1.1-1.75-2.86-2.13-4.1
				c-0.75-2.49-1.22-11.11-1.22-11.11c0.27-0.64,1.48-2.15,2.33-2.63c-0.43,0.16,0.12,12.3,2.83,15.64
				C1063.03,252.89,1067.28,254.76,1068.35,255.41L1068.35,255.41z"/>
			<path fill="#407BFF" d="M1140.31,87.81c5.7,1.23,11.37,3.8,2.12,2.62c-9.4-1.2-19.44-5.28-19.44-5.28L1140.31,87.81
				L1140.31,87.81z"/>
			<path opacity="0.4" fill="#FFFFFF" enable-background="new    " d="M1140.31,87.81c5.7,1.23,11.37,3.8,2.12,2.62
				c-9.4-1.2-19.44-5.28-19.44-5.28L1140.31,87.81L1140.31,87.81z"/>
			<path fill="#407BFF" d="M1119.54,84.04c0,0,11.98,4.27,19.74,4.1c0.73-3.19-0.87-6.95-0.87-6.95s-4.67-3.63-7.21-4.14
				c-0.14-0.02-0.27-0.03-0.4-0.03c-2.21,0.06-6.58,0.79-8.33,1.1c-0.48,0.09-0.89,0.38-1.12,0.82
				C1120.75,80.06,1119.68,82.3,1119.54,84.04L1119.54,84.04z"/>
			<path fill="#407BFF" d="M1092.68,239.64l65.91-41.54l4.12-3.8c3.16-2.91,7.39-2.64,9.45,0.61c2.05,3.25,1.15,8.25-2.01,11.16
				c-2.74,2.52-5.71,4.8-8.88,6.79l-56.4,35.55c-3.16,1.99-6.5,3.7-9.95,5.08c-3.99,1.6-8.89,0.26-10.95-3
				c-2.05-3.25-0.48-7.18,3.51-8.78L1092.68,239.64z"/>
			<path opacity="0.3" enable-background="new    " d="M1092.68,239.64l65.91-41.54l4.12-3.8c3.16-2.91,7.39-2.64,9.45,0.61
				c2.05,3.25,1.15,8.25-2.01,11.16c-2.74,2.52-5.71,4.8-8.88,6.79l-56.4,35.55c-3.16,1.99-6.5,3.7-9.95,5.08
				c-3.99,1.6-8.89,0.26-10.95-3c-2.05-3.25-0.48-7.18,3.51-8.78L1092.68,239.64z"/>
			<path fill="#407BFF" d="M1093.13,240.37l65.91-41.54l4.07-3.88c3.12-2.98,7.48-2.49,9.74,1.08c2.26,3.57,1.56,8.89-1.57,11.86
				c-2.7,2.58-5.66,4.88-8.82,6.87l-56.4,35.55c-3.16,1.99-6.51,3.67-10.01,4.99c-4.04,1.53-9.14-0.12-11.39-3.7
				c-2.26-3.57-0.82-7.72,3.22-9.25L1093.13,240.37z"/>
			<path fill="#407BFF" d="M1156.62,218.46l2.26,3.55c0.29,0.46,0.88,0.72,1.7,0.69c1.65-0.06,3.61-1.3,4.39-2.76
				c0.39-0.74,0.4-1.39,0.11-1.86l-2.26-3.55c0.29,0.46,0.28,1.11-0.11,1.86c-0.77,1.47-2.74,2.71-4.39,2.76
				C1157.5,219.18,1156.91,218.92,1156.62,218.46z"/>
			<path opacity="0.4" enable-background="new    " d="M1156.62,218.46l2.26,3.55c0.29,0.46,0.88,0.72,1.7,0.69
				c1.65-0.06,3.61-1.3,4.39-2.76c0.39-0.74,0.4-1.39,0.11-1.86l-2.26-3.55c0.29,0.46,0.28,1.11-0.11,1.86
				c-0.77,1.47-2.74,2.71-4.39,2.76C1157.5,219.18,1156.91,218.92,1156.62,218.46z"/>
			<path fill="#407BFF" d="M1156.72,216.61c-0.77,1.47-0.06,2.61,1.59,2.54c1.65-0.06,3.61-1.3,4.39-2.76
				c0.77-1.47,0.06-2.61-1.59-2.55C1159.46,213.91,1157.5,215.15,1156.72,216.61L1156.72,216.61z"/>
			<path opacity="0.2" enable-background="new    " d="M1156.72,216.61c-0.77,1.47-0.06,2.61,1.59,2.54
				c1.65-0.06,3.61-1.3,4.39-2.76c0.77-1.47,0.06-2.61-1.59-2.55C1159.46,213.91,1157.5,215.15,1156.72,216.61L1156.72,216.61z"/>
			<path fill="#FFFFFF" d="M1160.04,217.01c0.52-0.33,0.68-1.02,0.35-1.54l-4.36-6.9c-0.33-0.52-1.02-0.67-1.54-0.35
				c-0.52,0.33-0.68,1.02-0.35,1.54l4.36,6.9C1158.83,217.18,1159.52,217.34,1160.04,217.01z"/>
			<path fill="#407BFF" d="M1151.07,209.67l2.26,3.55c0.29,0.46,0.88,0.72,1.7,0.69c1.65-0.06,3.61-1.3,4.39-2.76
				c0.39-0.74,0.4-1.39,0.11-1.86l-2.26-3.55c0.29,0.46,0.28,1.11-0.11,1.86c-0.77,1.47-2.74,2.71-4.39,2.76
				C1151.95,210.4,1151.36,210.13,1151.07,209.67z"/>
			<path opacity="0.4" enable-background="new    " d="M1151.07,209.67l2.26,3.55c0.29,0.46,0.88,0.72,1.7,0.69
				c1.65-0.06,3.61-1.3,4.39-2.76c0.39-0.74,0.4-1.39,0.11-1.86l-2.26-3.55c0.29,0.46,0.28,1.11-0.11,1.86
				c-0.77,1.47-2.74,2.71-4.39,2.76C1151.95,210.4,1151.36,210.13,1151.07,209.67z"/>
			<path fill="#407BFF" d="M1151.18,207.82c-0.77,1.47-0.06,2.61,1.59,2.54c1.65-0.06,3.61-1.3,4.39-2.76
				c0.77-1.47,0.06-2.61-1.59-2.55C1153.92,205.12,1151.96,206.36,1151.18,207.82L1151.18,207.82z"/>
			<path opacity="0.2" enable-background="new    " d="M1151.18,207.82c-0.77,1.47-0.06,2.61,1.59,2.54
				c1.65-0.06,3.61-1.3,4.39-2.76c0.77-1.47,0.06-2.61-1.59-2.55C1153.92,205.12,1151.96,206.36,1151.18,207.82L1151.18,207.82z"/>
			<path fill="#407BFF" d="M1105.26,250.83l2.26,3.55c0.29,0.46,0.88,0.72,1.7,0.69c1.65-0.06,3.61-1.3,4.39-2.76
				c0.39-0.74,0.4-1.39,0.11-1.86l-2.26-3.55c0.29,0.46,0.28,1.11-0.11,1.86c-0.77,1.47-2.74,2.71-4.39,2.76
				C1106.14,251.55,1105.56,251.28,1105.26,250.83z"/>
			<path opacity="0.4" enable-background="new    " d="M1105.26,250.83l2.26,3.55c0.29,0.46,0.88,0.72,1.7,0.69
				c1.65-0.06,3.61-1.3,4.39-2.76c0.39-0.74,0.4-1.39,0.11-1.86l-2.26-3.55c0.29,0.46,0.28,1.11-0.11,1.86
				c-0.77,1.47-2.74,2.71-4.39,2.76C1106.14,251.55,1105.56,251.28,1105.26,250.83z"/>
			<path fill="#407BFF" d="M1105.37,248.97c-0.77,1.47-0.06,2.61,1.59,2.55c1.65-0.06,3.61-1.3,4.39-2.76
				c0.77-1.46,0.06-2.61-1.59-2.55C1108.11,246.27,1106.14,247.51,1105.37,248.97L1105.37,248.97z"/>
			<path opacity="0.2" enable-background="new    " d="M1105.37,248.97c-0.77,1.47-0.06,2.61,1.59,2.55
				c1.65-0.06,3.61-1.3,4.39-2.76c0.77-1.46,0.06-2.61-1.59-2.55C1108.11,246.27,1106.14,247.51,1105.37,248.97L1105.37,248.97z"/>
			<path fill="#FFFFFF" d="M1108.69,249.38c0.52-0.33,0.68-1.02,0.35-1.54l-4.36-6.9c-0.33-0.52-1.02-0.67-1.54-0.35
				c-0.52,0.33-0.68,1.02-0.35,1.54l4.36,6.9C1107.48,249.55,1108.16,249.7,1108.69,249.38z"/>
			<path fill="#407BFF" d="M1099.72,242.04l2.26,3.55c0.29,0.46,0.88,0.72,1.7,0.69c1.65-0.06,3.61-1.3,4.39-2.76
				c0.39-0.74,0.4-1.39,0.11-1.86l-2.26-3.55c0.29,0.46,0.28,1.11-0.11,1.86c-0.77,1.47-2.74,2.71-4.39,2.76
				C1100.6,242.76,1100.01,242.5,1099.72,242.04z"/>
			<path opacity="0.4" enable-background="new    " d="M1099.72,242.04l2.26,3.55c0.29,0.46,0.88,0.72,1.7,0.69
				c1.65-0.06,3.61-1.3,4.39-2.76c0.39-0.74,0.4-1.39,0.11-1.86l-2.26-3.55c0.29,0.46,0.28,1.11-0.11,1.86
				c-0.77,1.47-2.74,2.71-4.39,2.76C1100.6,242.76,1100.01,242.5,1099.72,242.04z"/>
			<path fill="#407BFF" d="M1099.82,240.19c-0.77,1.47-0.06,2.61,1.59,2.55c1.65-0.06,3.61-1.3,4.39-2.76
				c0.77-1.47,0.06-2.61-1.59-2.55C1102.56,237.49,1100.6,238.73,1099.82,240.19L1099.82,240.19z"/>
			<path opacity="0.2" enable-background="new    " d="M1099.82,240.19c-0.77,1.47-0.06,2.61,1.59,2.55
				c1.65-0.06,3.61-1.3,4.39-2.76c0.77-1.47,0.06-2.61-1.59-2.55C1102.56,237.49,1100.6,238.73,1099.82,240.19L1099.82,240.19z"/>
			<path fill="#263238" d="M1109.31,97.33c3.24,10.79,2.48,21.41-6.94,32.26c-0.29,2.43,0.7,5.95,0.7,5.95s12-6.14,13.72-22.53
				c0.84-8.08-3.43-16.25-3.43-16.25C1112.53,96.37,1109.88,96.59,1109.31,97.33L1109.31,97.33z"/>
		</g>
	</g>
	<g>
		<defs>
			<rect id="SVGID_00000026884412385205420490000002978204986552762002_" x="1229.64" y="250.99" width="116.94" height="117.89"/>
		</defs>
		<clipPath id="SVGID_00000013895629446559133300000005480071765894578595_">
			<use xlink:href="#SVGID_00000026884412385205420490000002978204986552762002_"  overflow="visible"/>
		</clipPath>
		<g clip-path="url(#SVGID_00000013895629446559133300000005480071765894578595_)">
			<path d="M1330.1,319.46h-66.44c-0.44,0-0.79-0.35-0.79-0.8v-66.87c0-0.44,0.35-0.8,0.79-0.8h66.44c0.44,0,0.79,0.35,0.79,0.8
				v66.88C1330.89,319.11,1330.54,319.47,1330.1,319.46L1330.1,319.46z M1264.44,317.86h64.86v-65.28h-64.85L1264.44,317.86
				L1264.44,317.86z"/>
			<path d="M1296.88,352.9h-66.44c-0.44,0-0.79-0.35-0.79-0.8v-66.87c0-0.44,0.35-0.8,0.79-0.8h66.44c0.43,0,0.79,0.35,0.79,0.8
				v66.88C1297.67,352.55,1297.32,352.9,1296.88,352.9L1296.88,352.9z M1231.23,351.3h64.86v-65.28h-64.86V351.3L1231.23,351.3z"/>
			<path fill="#231F20" d="M1303.38,325.4l14.55,37.25l7.05-7.1l13.25,13.33l8.35-8.4l-13.24-13.33l7.05-7.1L1303.38,325.4z"/>
		</g>
	</g>
	<g>
		<defs>
			<rect id="SVGID_00000019674871577087844590000016451129331169879946_" x="1072.35" y="371.47" width="117.99" height="119.28"/>
		</defs>
		<clipPath id="SVGID_00000115480154931367103780000006964497752509244087_">
			<use xlink:href="#SVGID_00000019674871577087844590000016451129331169879946_"  overflow="visible"/>
		</clipPath>
		<g clip-path="url(#SVGID_00000115480154931367103780000006964497752509244087_)">
			<path fill="#293FE6" d="M1097.13,469.69l-2.76,8.21c3.25,2.57,6.74,4.78,10.43,6.61l6.25-6l7.39,2.94l7.89,0.97l2.61,8.27
				c4.08,0.17,8.2-0.08,12.32-0.78l1.53-8.54l7.71-1.96l6.96-3.85l6.97,5.16c3.47-2.31,6.65-4.96,9.51-7.88l-3.78-7.81l5.08-6.11
				l3.36-7.21l8.67,0.08c1.43-3.86,2.45-7.87,3.07-11.96l-7.64-4.09l0.51-7.93l-1.52-7.81l7.07-5.04c-0.55-1.96-1.21-3.91-1.98-5.85
				s-1.63-3.81-2.57-5.62l-8.59,1.18l-4.25-6.72l-5.81-5.42l2.76-8.22c-3.25-2.56-6.75-4.79-10.43-6.61l-6.26,6l-7.39-2.95
				l-7.89-0.97l-2.61-8.26c-4.07-0.17-8.2,0.08-12.32,0.78l-1.53,8.53l-7.7,1.97l-6.96,3.85l-6.97-5.16
				c-3.48,2.31-6.65,4.96-9.5,7.88l3.77,7.8l-5.08,6.12l-3.36,7.21l-8.67-0.08c-1.43,3.86-2.46,7.87-3.07,11.96l7.63,4.1l-0.51,7.93
				l1.52,7.81l-7.07,5.03c0.56,1.96,1.22,3.92,1.99,5.86c0.76,1.93,1.63,3.81,2.57,5.62l8.6-1.18l4.24,6.72l5.82,5.42H1097.13z
				 M1101.9,442.79c-6.45-16.26,1.51-34.67,17.77-41.12c16.25-6.45,34.66,1.51,41.11,17.77c6.45,16.26-1.5,34.67-17.77,41.12
				c-16.26,6.45-34.67-1.5-41.12-17.77H1101.9z"/>
		</g>
	</g>
	<rect x="332.05" y="436.84" fill="#8996E1" width="37.67" height="37.67"/>
	<rect x="294.69" y="396.5" fill="#8996E1" width="37.67" height="37.67"/>
	<rect x="257.71" y="437.22" fill="#8996E1" width="37.67" height="37.67"/>
	<rect x="220.36" y="396.87" fill="#8996E1" width="37.67" height="37.67"/>
	<rect x="183.75" y="437.22" fill="#B4BCFF" width="37.67" height="37.67"/>
	<rect x="146.02" y="476.44" fill="#B4BCFF" width="37.67" height="37.67"/>
	<rect x="108.67" y="437.22" fill="#B4BCFF" width="37.67" height="37.67"/>
	<rect x="70.94" y="398" fill="#DDE1FF" width="37.67" height="37.67"/>
	<rect x="33.77" y="436.66" fill="#DDE1FF" width="37.67" height="37.67"/>
</g>
</svg>
